<mxfile host="Electron" agent="Mozilla/5.0 (Windows NT 10.0; Win64; x64) AppleWebKit/537.36 (KHTML, like Gecko) draw.io/22.0.2 Chrome/114.0.5735.289 Electron/25.8.4 Safari/537.36" modified="2024-08-11T17:21:18.507Z" version="22.0.2" etag="DLbXHHMLz3QtAG7jBwsO" type="device">
  <diagram id="MGs0LUYf-GMzgS9rVzBE" name="v1.1">
    <mxGraphModel dx="785" dy="1262" grid="1" gridSize="10" guides="1" tooltips="1" connect="1" arrows="1" fold="1" page="0" pageScale="1" pageWidth="827" pageHeight="1169" math="0" shadow="0">
      <root>
        <mxCell id="0" />
        <mxCell id="1" parent="0" />
        <mxCell id="_0WitGaJTUT66qUhef1j-1" value="" style="rounded=0;whiteSpace=wrap;html=1;" vertex="1" parent="1">
          <mxGeometry x="230" y="-80" width="410" height="200" as="geometry" />
        </mxCell>
        <mxCell id="_0WitGaJTUT66qUhef1j-2" value="" style="rounded=0;whiteSpace=wrap;html=1;" vertex="1" parent="1">
          <mxGeometry x="230" y="-100" width="120" height="20" as="geometry" />
        </mxCell>
        <mxCell id="_0WitGaJTUT66qUhef1j-5" value="" style="rounded=0;whiteSpace=wrap;html=1;" vertex="1" parent="1">
          <mxGeometry x="720" y="-80" width="370" height="200" as="geometry" />
        </mxCell>
        <mxCell id="_0WitGaJTUT66qUhef1j-6" value="" style="rounded=0;whiteSpace=wrap;html=1;" vertex="1" parent="1">
          <mxGeometry x="720" y="-100" width="140" height="20" as="geometry" />
        </mxCell>
        <mxCell id="_0WitGaJTUT66qUhef1j-7" value="Package Persistencia" style="text;html=1;strokeColor=none;fillColor=none;align=center;verticalAlign=middle;whiteSpace=wrap;rounded=0;fontColor=#3333FF;" vertex="1" parent="1">
          <mxGeometry x="725" y="-105" width="130" height="30" as="geometry" />
        </mxCell>
        <mxCell id="_0WitGaJTUT66qUhef1j-8" value="" style="rounded=0;whiteSpace=wrap;html=1;" vertex="1" parent="1">
          <mxGeometry x="555" y="-640" width="230" height="500" as="geometry" />
        </mxCell>
        <mxCell id="_0WitGaJTUT66qUhef1j-9" value="" style="rounded=0;whiteSpace=wrap;html=1;" vertex="1" parent="1">
          <mxGeometry x="555" y="-660" width="165" height="20" as="geometry" />
        </mxCell>
        <mxCell id="_0WitGaJTUT66qUhef1j-10" value="Package UI" style="text;html=1;strokeColor=none;fillColor=none;align=center;verticalAlign=middle;whiteSpace=wrap;rounded=0;fontColor=#3333FF;" vertex="1" parent="1">
          <mxGeometry x="250" y="-105" width="80" height="30" as="geometry" />
        </mxCell>
        <mxCell id="aobi03AEEQOkNbU08Th2-1" value="&amp;lt;&amp;lt;persistencia&amp;gt;&amp;gt;&lt;br&gt;SGBDComponent" style="shape=module;align=left;spacingLeft=20;align=center;verticalAlign=top;whiteSpace=wrap;html=1;" vertex="1" parent="1">
          <mxGeometry x="810" y="55" width="190" height="50" as="geometry" />
        </mxCell>
        <mxCell id="nzzazoCKjXm_w-X4W4u7-1" value="&amp;lt;&amp;lt;persistencia&amp;gt;&amp;gt;&lt;br&gt;GeneradorPersistenciaComponent" style="shape=module;align=left;spacingLeft=20;align=center;verticalAlign=top;whiteSpace=wrap;html=1;" vertex="1" parent="1">
          <mxGeometry x="785" y="-60" width="240" height="50" as="geometry" />
        </mxCell>
        <mxCell id="nzzazoCKjXm_w-X4W4u7-2" value="" style="rounded=0;orthogonalLoop=1;jettySize=auto;html=1;endArrow=halfCircle;endFill=0;endSize=6;strokeWidth=1;sketch=0;exitX=0.581;exitY=0.009;exitDx=0;exitDy=0;exitPerimeter=0;" edge="1" parent="1" source="aobi03AEEQOkNbU08Th2-1">
          <mxGeometry relative="1" as="geometry">
            <mxPoint x="955" y="54.999999999999886" as="sourcePoint" />
            <mxPoint x="920" y="20" as="targetPoint" />
            <Array as="points">
              <mxPoint x="920" y="40" />
            </Array>
          </mxGeometry>
        </mxCell>
        <mxCell id="nzzazoCKjXm_w-X4W4u7-3" value="" style="rounded=0;orthogonalLoop=1;jettySize=auto;html=1;endArrow=oval;endFill=0;sketch=0;sourcePerimeterSpacing=0;targetPerimeterSpacing=0;endSize=10;" edge="1" parent="1">
          <mxGeometry relative="1" as="geometry">
            <mxPoint x="920" y="-10" as="sourcePoint" />
            <mxPoint x="920" y="20" as="targetPoint" />
            <Array as="points">
              <mxPoint x="920" y="-10" />
            </Array>
          </mxGeometry>
        </mxCell>
        <mxCell id="nzzazoCKjXm_w-X4W4u7-4" value="" style="ellipse;whiteSpace=wrap;html=1;align=center;aspect=fixed;fillColor=none;strokeColor=none;resizable=0;perimeter=centerPerimeter;rotatable=0;allowArrows=0;points=[];outlineConnect=1;flipV=1;" vertex="1" parent="1">
          <mxGeometry x="855" width="10" height="10" as="geometry" />
        </mxCell>
        <mxCell id="nzzazoCKjXm_w-X4W4u7-5" value="&amp;lt;&amp;lt;ui&amp;gt;&amp;gt;&lt;br&gt;LoginComponent" style="shape=module;align=left;spacingLeft=20;align=center;verticalAlign=top;whiteSpace=wrap;html=1;" vertex="1" parent="1">
          <mxGeometry x="240" y="-5" width="130" height="50" as="geometry" />
        </mxCell>
        <mxCell id="ZrzuvcnPLyBgRJ_SXgJo-1" value="&amp;lt;&amp;lt;ui&amp;gt;&amp;gt;&lt;br&gt;GestiónProfesoresComponent" style="shape=module;align=left;spacingLeft=20;align=center;verticalAlign=top;whiteSpace=wrap;html=1;" vertex="1" parent="1">
          <mxGeometry x="430" y="-60" width="190" height="50" as="geometry" />
        </mxCell>
        <mxCell id="ZrzuvcnPLyBgRJ_SXgJo-2" value="&amp;lt;&amp;lt;ui&amp;gt;&amp;gt;&lt;br&gt;GestiónAdministradoresComponent" style="shape=module;align=left;spacingLeft=20;align=center;verticalAlign=top;whiteSpace=wrap;html=1;" vertex="1" parent="1">
          <mxGeometry x="400" y="45" width="220" height="50" as="geometry" />
        </mxCell>
        <mxCell id="_0WitGaJTUT66qUhef1j-3" value="Package Lógica de Negocio" style="text;html=1;strokeColor=none;fillColor=none;align=center;verticalAlign=middle;whiteSpace=wrap;rounded=0;fontColor=#3333FF;" vertex="1" parent="1">
          <mxGeometry x="560" y="-665" width="155" height="30" as="geometry" />
        </mxCell>
        <mxCell id="_MyT93nLCtCk6NPV3HkD-2" value="" style="rounded=0;orthogonalLoop=1;jettySize=auto;html=1;endArrow=halfCircle;endFill=0;endSize=6;strokeWidth=1;sketch=0;exitX=0.047;exitY=0.478;exitDx=0;exitDy=0;exitPerimeter=0;" edge="1" target="_MyT93nLCtCk6NPV3HkD-4" parent="1" source="ZrzuvcnPLyBgRJ_SXgJo-1">
          <mxGeometry relative="1" as="geometry">
            <mxPoint x="437.66999999999996" y="-25.300000000000182" as="sourcePoint" />
          </mxGeometry>
        </mxCell>
        <mxCell id="_MyT93nLCtCk6NPV3HkD-3" value="" style="rounded=0;orthogonalLoop=1;jettySize=auto;html=1;endArrow=oval;endFill=0;sketch=0;sourcePerimeterSpacing=0;targetPerimeterSpacing=0;endSize=10;exitX=0.5;exitY=0;exitDx=0;exitDy=0;entryX=1.084;entryY=0.527;entryDx=0;entryDy=0;entryPerimeter=0;" edge="1" target="_MyT93nLCtCk6NPV3HkD-4" parent="1" source="nzzazoCKjXm_w-X4W4u7-5">
          <mxGeometry relative="1" as="geometry">
            <mxPoint x="425" y="-35" as="sourcePoint" />
            <mxPoint x="390" y="-20" as="targetPoint" />
          </mxGeometry>
        </mxCell>
        <mxCell id="_MyT93nLCtCk6NPV3HkD-4" value="" style="ellipse;whiteSpace=wrap;html=1;align=center;aspect=fixed;fillColor=none;strokeColor=none;resizable=0;perimeter=centerPerimeter;rotatable=0;allowArrows=0;points=[];outlineConnect=1;" vertex="1" parent="1">
          <mxGeometry x="380" y="-30" width="10" height="10" as="geometry" />
        </mxCell>
        <mxCell id="_MyT93nLCtCk6NPV3HkD-5" value="" style="rounded=0;orthogonalLoop=1;jettySize=auto;html=1;endArrow=halfCircle;endFill=0;endSize=6;strokeWidth=1;sketch=0;exitX=0.042;exitY=0.497;exitDx=0;exitDy=0;exitPerimeter=0;" edge="1" parent="1" source="ZrzuvcnPLyBgRJ_SXgJo-2">
          <mxGeometry relative="1" as="geometry">
            <mxPoint x="410.65" y="59.92999999999982" as="sourcePoint" />
            <mxPoint x="360" y="60" as="targetPoint" />
          </mxGeometry>
        </mxCell>
        <mxCell id="_MyT93nLCtCk6NPV3HkD-6" value="" style="rounded=0;orthogonalLoop=1;jettySize=auto;html=1;endArrow=oval;endFill=0;sketch=0;sourcePerimeterSpacing=0;targetPerimeterSpacing=0;endSize=10;exitX=0.5;exitY=1;exitDx=0;exitDy=0;" edge="1" parent="1" source="nzzazoCKjXm_w-X4W4u7-5">
          <mxGeometry relative="1" as="geometry">
            <mxPoint x="430" y="70" as="sourcePoint" />
            <mxPoint x="360" y="60" as="targetPoint" />
          </mxGeometry>
        </mxCell>
        <mxCell id="_MyT93nLCtCk6NPV3HkD-7" value="" style="ellipse;whiteSpace=wrap;html=1;align=center;aspect=fixed;fillColor=none;strokeColor=none;resizable=0;perimeter=centerPerimeter;rotatable=0;allowArrows=0;points=[];outlineConnect=1;" vertex="1" parent="1">
          <mxGeometry x="445" y="65" width="10" height="10" as="geometry" />
        </mxCell>
        <mxCell id="_MyT93nLCtCk6NPV3HkD-8" value="" style="rounded=0;orthogonalLoop=1;jettySize=auto;html=1;endArrow=halfCircle;endFill=0;endSize=6;strokeWidth=1;sketch=0;exitX=0;exitY=0;exitDx=0;exitDy=15;exitPerimeter=0;" edge="1" target="_MyT93nLCtCk6NPV3HkD-10" parent="1" source="nzzazoCKjXm_w-X4W4u7-1">
          <mxGeometry relative="1" as="geometry">
            <mxPoint x="700" y="-45" as="sourcePoint" />
          </mxGeometry>
        </mxCell>
        <mxCell id="_MyT93nLCtCk6NPV3HkD-9" value="" style="rounded=0;orthogonalLoop=1;jettySize=auto;html=1;endArrow=oval;endFill=0;sketch=0;sourcePerimeterSpacing=0;targetPerimeterSpacing=0;endSize=10;exitX=1.003;exitY=0.302;exitDx=0;exitDy=0;exitPerimeter=0;" edge="1" target="_MyT93nLCtCk6NPV3HkD-10" parent="1" source="ZrzuvcnPLyBgRJ_SXgJo-1">
          <mxGeometry relative="1" as="geometry">
            <mxPoint x="660" y="-45" as="sourcePoint" />
          </mxGeometry>
        </mxCell>
        <mxCell id="_MyT93nLCtCk6NPV3HkD-10" value="" style="ellipse;whiteSpace=wrap;html=1;align=center;aspect=fixed;fillColor=none;strokeColor=none;resizable=0;perimeter=centerPerimeter;rotatable=0;allowArrows=0;points=[];outlineConnect=1;" vertex="1" parent="1">
          <mxGeometry x="675" y="-50" width="10" height="10" as="geometry" />
        </mxCell>
        <mxCell id="_MyT93nLCtCk6NPV3HkD-11" value="" style="rounded=0;orthogonalLoop=1;jettySize=auto;html=1;endArrow=halfCircle;endFill=0;endSize=6;strokeWidth=1;sketch=0;exitX=0;exitY=0;exitDx=0;exitDy=35;exitPerimeter=0;" edge="1" target="_MyT93nLCtCk6NPV3HkD-13" parent="1" source="nzzazoCKjXm_w-X4W4u7-1">
          <mxGeometry relative="1" as="geometry">
            <mxPoint x="780" y="-30" as="sourcePoint" />
          </mxGeometry>
        </mxCell>
        <mxCell id="_MyT93nLCtCk6NPV3HkD-12" value="" style="rounded=0;orthogonalLoop=1;jettySize=auto;html=1;endArrow=oval;endFill=0;sketch=0;sourcePerimeterSpacing=0;targetPerimeterSpacing=0;endSize=10;exitX=1.005;exitY=0.293;exitDx=0;exitDy=0;exitPerimeter=0;" edge="1" target="_MyT93nLCtCk6NPV3HkD-13" parent="1" source="ZrzuvcnPLyBgRJ_SXgJo-2">
          <mxGeometry relative="1" as="geometry">
            <mxPoint x="620" y="62.5" as="sourcePoint" />
          </mxGeometry>
        </mxCell>
        <mxCell id="_MyT93nLCtCk6NPV3HkD-13" value="" style="ellipse;whiteSpace=wrap;html=1;align=center;aspect=fixed;fillColor=none;strokeColor=none;resizable=0;perimeter=centerPerimeter;rotatable=0;allowArrows=0;points=[];outlineConnect=1;" vertex="1" parent="1">
          <mxGeometry x="675" y="55" width="10" height="10" as="geometry" />
        </mxCell>
        <mxCell id="KRNnaoQSp2KmegvZKQvz-1" value="El paquete Persistencia, junto con el componente Generador de Persistencia hace referencia a Alta, Baja y Modificación de las clases... como también otras operaciones que se hacen a partir de la UI y la Lógica de Negocio en la gestion de clases" style="text;html=1;strokeColor=#6c8ebf;fillColor=#dae8fc;align=center;verticalAlign=middle;whiteSpace=wrap;rounded=0;" vertex="1" parent="1">
          <mxGeometry x="1140" y="-80" width="300" height="100" as="geometry" />
        </mxCell>
        <mxCell id="KRNnaoQSp2KmegvZKQvz-3" value="&amp;lt;&amp;lt;logica de negocio&amp;gt;&amp;gt;&lt;br&gt;ClasesComponent" style="shape=module;align=left;spacingLeft=20;align=center;verticalAlign=top;whiteSpace=wrap;html=1;" vertex="1" parent="1">
          <mxGeometry x="595" y="-485" width="150" height="50" as="geometry" />
        </mxCell>
        <mxCell id="KRNnaoQSp2KmegvZKQvz-4" value="" style="rounded=0;orthogonalLoop=1;jettySize=auto;html=1;endArrow=halfCircle;endFill=0;endSize=6;strokeWidth=1;sketch=0;exitX=0.51;exitY=0.052;exitDx=0;exitDy=0;exitPerimeter=0;" edge="1" target="KRNnaoQSp2KmegvZKQvz-6" parent="1" source="nzzazoCKjXm_w-X4W4u7-1">
          <mxGeometry relative="1" as="geometry">
            <mxPoint x="940" y="-285" as="sourcePoint" />
          </mxGeometry>
        </mxCell>
        <mxCell id="KRNnaoQSp2KmegvZKQvz-5" value="" style="rounded=0;orthogonalLoop=1;jettySize=auto;html=1;endArrow=oval;endFill=0;sketch=0;sourcePerimeterSpacing=0;targetPerimeterSpacing=0;endSize=10;exitX=1;exitY=0.75;exitDx=0;exitDy=0;" edge="1" target="KRNnaoQSp2KmegvZKQvz-6" parent="1" source="KRNnaoQSp2KmegvZKQvz-3">
          <mxGeometry relative="1" as="geometry">
            <mxPoint x="900" y="-285" as="sourcePoint" />
          </mxGeometry>
        </mxCell>
        <mxCell id="KRNnaoQSp2KmegvZKQvz-6" value="" style="ellipse;whiteSpace=wrap;html=1;align=center;aspect=fixed;fillColor=none;strokeColor=none;resizable=0;perimeter=centerPerimeter;rotatable=0;allowArrows=0;points=[];outlineConnect=1;" vertex="1" parent="1">
          <mxGeometry x="915" y="-290" width="10" height="10" as="geometry" />
        </mxCell>
        <mxCell id="KRNnaoQSp2KmegvZKQvz-7" value="&amp;lt;&amp;lt;logica de negocio&amp;gt;&amp;gt;&lt;br&gt;UsuariosComponent" style="shape=module;align=left;spacingLeft=20;align=center;verticalAlign=top;whiteSpace=wrap;html=1;" vertex="1" parent="1">
          <mxGeometry x="595" y="-395" width="150" height="50" as="geometry" />
        </mxCell>
        <mxCell id="KRNnaoQSp2KmegvZKQvz-8" value="" style="rounded=0;orthogonalLoop=1;jettySize=auto;html=1;endArrow=oval;endFill=0;sketch=0;sourcePerimeterSpacing=0;targetPerimeterSpacing=0;endSize=10;exitX=1;exitY=0.25;exitDx=0;exitDy=0;entryX=0.09;entryY=0.2;entryDx=0;entryDy=0;entryPerimeter=0;" edge="1" parent="1" source="KRNnaoQSp2KmegvZKQvz-7" target="KRNnaoQSp2KmegvZKQvz-6">
          <mxGeometry relative="1" as="geometry">
            <mxPoint x="825" y="-280" as="sourcePoint" />
            <mxPoint x="920" y="-213" as="targetPoint" />
          </mxGeometry>
        </mxCell>
        <mxCell id="KRNnaoQSp2KmegvZKQvz-12" value="&amp;lt;&amp;lt;logica de negocio&amp;gt;&amp;gt;&lt;br&gt;RolesComponent" style="shape=module;align=left;spacingLeft=20;align=center;verticalAlign=top;whiteSpace=wrap;html=1;" vertex="1" parent="1">
          <mxGeometry x="595" y="-315" width="150" height="50" as="geometry" />
        </mxCell>
        <mxCell id="KRNnaoQSp2KmegvZKQvz-13" value="&amp;lt;&amp;lt;logica de negocio&amp;gt;&amp;gt;&lt;br&gt;MateriasComponent" style="shape=module;align=left;spacingLeft=20;align=center;verticalAlign=top;whiteSpace=wrap;html=1;" vertex="1" parent="1">
          <mxGeometry x="595" y="-225" width="150" height="50" as="geometry" />
        </mxCell>
        <mxCell id="KRNnaoQSp2KmegvZKQvz-18" value="" style="endArrow=none;html=1;rounded=0;exitX=1;exitY=0.25;exitDx=0;exitDy=0;" edge="1" parent="1" source="KRNnaoQSp2KmegvZKQvz-12">
          <mxGeometry width="50" height="50" relative="1" as="geometry">
            <mxPoint x="710" y="-320" as="sourcePoint" />
            <mxPoint x="920" y="-290" as="targetPoint" />
          </mxGeometry>
        </mxCell>
        <mxCell id="KRNnaoQSp2KmegvZKQvz-19" value="" style="endArrow=none;html=1;rounded=0;exitX=1;exitY=0.25;exitDx=0;exitDy=0;" edge="1" parent="1" source="KRNnaoQSp2KmegvZKQvz-13">
          <mxGeometry width="50" height="50" relative="1" as="geometry">
            <mxPoint x="710" y="-320" as="sourcePoint" />
            <mxPoint x="920" y="-290" as="targetPoint" />
          </mxGeometry>
        </mxCell>
        <mxCell id="KRNnaoQSp2KmegvZKQvz-20" value="" style="rounded=0;orthogonalLoop=1;jettySize=auto;html=1;endArrow=halfCircle;endFill=0;endSize=6;strokeWidth=1;sketch=0;exitX=0;exitY=0;exitDx=0;exitDy=15;exitPerimeter=0;" edge="1" parent="1" source="KRNnaoQSp2KmegvZKQvz-7">
          <mxGeometry relative="1" as="geometry">
            <mxPoint x="610" y="-145" as="sourcePoint" />
            <mxPoint x="200" y="-200" as="targetPoint" />
          </mxGeometry>
        </mxCell>
        <mxCell id="KRNnaoQSp2KmegvZKQvz-21" value="" style="rounded=0;orthogonalLoop=1;jettySize=auto;html=1;endArrow=oval;endFill=0;sketch=0;sourcePerimeterSpacing=0;targetPerimeterSpacing=0;endSize=10;exitX=0;exitY=0;exitDx=0;exitDy=15;exitPerimeter=0;" edge="1" parent="1" source="nzzazoCKjXm_w-X4W4u7-5">
          <mxGeometry relative="1" as="geometry">
            <mxPoint x="570" y="-145" as="sourcePoint" />
            <mxPoint x="200" y="-200" as="targetPoint" />
            <Array as="points">
              <mxPoint x="200" y="10" />
            </Array>
          </mxGeometry>
        </mxCell>
        <mxCell id="KRNnaoQSp2KmegvZKQvz-22" value="" style="ellipse;whiteSpace=wrap;html=1;align=center;aspect=fixed;fillColor=none;strokeColor=none;resizable=0;perimeter=centerPerimeter;rotatable=0;allowArrows=0;points=[];outlineConnect=1;" vertex="1" parent="1">
          <mxGeometry x="585" y="-150" width="10" height="10" as="geometry" />
        </mxCell>
        <mxCell id="H6pCoJly-injxfABEKMw-1" value="ClasesComponent&lt;br&gt;UsuariosComponent&lt;br&gt;RolesComponent&lt;br&gt;MateriasComponent&lt;br&gt;PersonasComponent&lt;br&gt;Estos componentes tienen métodos que recuperan los datos desde la Base de Datos. Se relacionan directamente con el componente de Persistencia" style="text;html=1;strokeColor=#6c8ebf;fillColor=#dae8fc;align=center;verticalAlign=middle;whiteSpace=wrap;rounded=0;" vertex="1" parent="1">
          <mxGeometry x="915" y="-600" width="270" height="145" as="geometry" />
        </mxCell>
        <mxCell id="H6pCoJly-injxfABEKMw-2" value="&amp;lt;&amp;lt;logica de negocio&amp;gt;&amp;gt;&lt;br&gt;PersonasComponent" style="shape=module;align=left;spacingLeft=20;align=center;verticalAlign=top;whiteSpace=wrap;html=1;" vertex="1" parent="1">
          <mxGeometry x="595" y="-585" width="150" height="50" as="geometry" />
        </mxCell>
        <mxCell id="H6pCoJly-injxfABEKMw-3" value="" style="rounded=0;orthogonalLoop=1;jettySize=auto;html=1;endArrow=halfCircle;endFill=0;endSize=6;strokeWidth=1;sketch=0;exitX=0;exitY=0;exitDx=0;exitDy=15;exitPerimeter=0;" edge="1" parent="1">
          <mxGeometry relative="1" as="geometry">
            <mxPoint x="595" y="-570" as="sourcePoint" />
            <mxPoint x="200" y="-200" as="targetPoint" />
          </mxGeometry>
        </mxCell>
      </root>
    </mxGraphModel>
  </diagram>
</mxfile>
